<?xml version="1.0" encoding="utf-8"?>
<!-- Generator: Adobe Illustrator 25.4.1, SVG Export Plug-In . SVG Version: 6.00 Build 0)  -->
<svg version="1.1" id="Camada_1" xmlns="http://www.w3.org/2000/svg" xmlns:xlink="http://www.w3.org/1999/xlink" x="0px" y="0px"
	 viewBox="0 0 52.7 53" style="enable-background:new 0 0 52.7 53;" xml:space="preserve">
<style type="text/css">
	.st0{fill:#4F5257;stroke:#4F5257;stroke-miterlimit:10;}
	.st1{fill:#4F5257;stroke:#4F5257;stroke-width:0.25;stroke-miterlimit:10;}
	.st2{fill:#4F5257;}
</style>
<g id="Grupo_45" transform="translate(1.081 3.611)">
	<path id="Caminho_389" class="st0" d="M37.7,49.1H12.1c-2.4,0-4.8-2.1-4.8-4.5l-2-29.4c0-0.3,0-0.9,0-1.2c0.3-0.6,1.2-1.2,2.1-1.2
		c0.9,0.3,1.2,1.2,1.2,1.8c0,0.3,0,0.3,0,0.6l1.8,29.4c0,0.9,0.9,1.8,2.1,1.8h26.2c0.9,0,1.8-0.9,2.1-1.8l1.5-29.4
		c0-0.3,0-0.3,0-0.6c-0.3-0.9,0.3-1.8,1.2-1.8s1.8,0.3,1.8,1.2c0,0.3,0,0.9,0,1.2l-1.8,29.4C42.5,47.3,40.7,49.1,37.7,49.1z"/>
</g>
<g id="Grupo_46">
	<path id="Caminho_390" class="st0" d="M45.1,19.1H7.6c-2.4,0-4.2-1.8-4.2-3.9V11c0-2.4,1.8-4.2,4.2-4.2h37.8c2.1,0,3.9,1.8,3.9,3.9
		v4.5C49.2,17.3,47.2,19.1,45.1,19.1z M7.6,9.8C7,9.8,6.4,10.4,6.4,11v4.2c0,0.6,0.6,1.2,1.2,1.2h37.8c0.6,0,1.2-0.6,1.2-1.2l0,0V11
		c0-0.6-0.6-1.2-1.2-1.2l0,0H7.6z"/>
</g>
<g id="Grupo_48" transform="translate(5.052)">
	<path id="Caminho_391" class="st1" d="M28,7.5c-0.9,0-1.5-0.9-1.5-1.5V4.2c0-0.6-0.3-0.9-0.9-0.9l0,0h-9.2c-0.6,0-0.9,0.3-0.9,0.9
		l0,0V6c0,0.9-0.6,1.5-1.5,1.5c-1.2,0-1.5-0.9-1.5-1.5V4.2c0-2.1,1.8-3.9,3.9-3.9h9.5c2.1,0,3.9,1.8,3.9,3.9V6
		C29.5,6.6,28.9,7.5,28,7.5z"/>
</g>
<g id="Grupo_53" transform="translate(4.557 7.624)">
	<g id="Grupo_50">
		<path id="Caminho_392" class="st2" d="M13.6,36.2c-0.9,0-1.8-0.6-1.8-1.2V17.7c0-0.6,0.6-1.2,1.5-1.2s1.5,0.3,1.5,1.2l0,0V35
			C15.1,35.6,14.2,36.2,13.6,36.2z"/>
	</g>
	<g id="Grupo_51" transform="translate(3.028)">
		<path id="Caminho_393" class="st2" d="M19,36.2c-0.9,0-1.5-0.6-1.5-1.2V17.7c0-0.6,0.6-1.2,1.5-1.2s1.5,0.3,1.5,1.2l0,0V35
			C20.5,35.6,19.6,36.2,19,36.2z"/>
	</g>
	<g id="Grupo_52" transform="translate(6.057)">
		<path id="Caminho_394" class="st2" d="M24.1,36.2c-0.9,0-1.5-0.6-1.5-1.2V17.7c0-0.6,0.6-1.2,1.5-1.2s1.5,0.3,1.5,1.2l0,0V35
			C25.9,35.6,25,36.2,24.1,36.2z"/>
	</g>
</g>
</svg>
