<?xml version="1.0" encoding="utf-8"?>
<!-- Generator: Adobe Illustrator 25.4.1, SVG Export Plug-In . SVG Version: 6.00 Build 0)  -->
<svg version="1.1" id="Camada_1" xmlns="http://www.w3.org/2000/svg" xmlns:xlink="http://www.w3.org/1999/xlink" x="0px" y="0px"
	 viewBox="0 0 52.7 53" style="enable-background:new 0 0 52.7 53;" xml:space="preserve">
<style type="text/css">
	.st0{fill:#4F5257;}
</style>
<path id="share_1_" class="st0" d="M40.7,35.7c-2.4,0-4.8,1-6.4,2.8L20,29.6c0.8-2,0.8-4.3,0-6.3l14.3-8.9c3.2,3.5,8.7,3.8,12.2,0.6
	s3.8-8.7,0.6-12.2S38.4-1,34.9,2.3c-2.7,2.4-3.5,6.2-2.2,9.6l-14.3,8.9c-3.2-3.5-8.7-3.8-12.2-0.6s-3.8,8.7-0.6,12.2
	s8.7,3.8,12.2,0.6c0.2-0.2,0.4-0.4,0.6-0.6l14.3,8.9c-1.7,4.5,0.5,9.5,4.9,11.2c4.5,1.7,9.5-0.5,11.2-4.9s-0.5-9.5-4.9-11.2
	C42.9,35.9,41.8,35.7,40.7,35.7z M35.2,8.7c0-3,2.5-5.5,5.5-5.5c3,0,5.5,2.5,5.5,5.5s-2.5,5.5-5.5,5.5C37.7,14.2,35.2,11.7,35.2,8.7
	z M12,32c-3,0-5.5-2.5-5.5-5.5c0-3,2.5-5.5,5.5-5.5s5.5,2.5,5.5,5.5c0,0,0,0,0,0C17.5,29.5,15,32,12,32z M35.2,44.3
	c0-3,2.5-5.5,5.5-5.5c3,0,5.5,2.5,5.5,5.5c0,3-2.5,5.5-5.5,5.5C37.7,49.8,35.2,47.4,35.2,44.3z"/>
</svg>
