<svg xmlns="http://www.w3.org/2000/svg" viewBox="0 0 40.92 51.4"><defs><style>.cls-1{fill:#7241dc;}</style></defs><g id="Camada_2" data-name="Camada 2"><g id="Capa_1" data-name="Capa 1"><path class="cls-1" d="M15.66,51.4a1.5,1.5,0,0,1-1.5-1.5V42.11a.39.39,0,0,0-.39-.39H10.09c-4.08,0-5.47-3.61-5.64-5.52V28.84H2.35A2.35,2.35,0,0,1,.26,25.42l3.23-6.26c-.07-1.81,0-8.53,4.6-13.56C11.48,1.88,16.5,0,23,0c8.77,0,13.07,4,15.14,7.26,4.25,6.82,2.93,16.73.7,21.28a67.61,67.61,0,0,0-3.39,8.37A9,9,0,0,0,35.28,42l1,3.75a1.5,1.5,0,1,1-2.9.75l-1-3.75A12.06,12.06,0,0,1,32.6,36a69.88,69.88,0,0,1,3.55-8.75c1.62-3.31,3.18-12.38-.56-18.37C33.17,5,28.93,3,23,3c-5.61,0-9.88,1.55-12.68,4.61C6,12.35,6.5,19.28,6.51,19.35a1.54,1.54,0,0,1-.17.82L3.42,25.84H6a1.5,1.5,0,0,1,1.5,1.5V36c.06.55.46,2.72,2.64,2.72h3.68a3.39,3.39,0,0,1,3.39,3.39V49.9A1.5,1.5,0,0,1,15.66,51.4Z"/></g></g></svg>