<?xml version="1.0" encoding="utf-8"?>
<!-- Generator: Adobe Illustrator 25.4.1, SVG Export Plug-In . SVG Version: 6.00 Build 0)  -->
<svg version="1.1" id="Camada_1" xmlns="http://www.w3.org/2000/svg" xmlns:xlink="http://www.w3.org/1999/xlink" x="0px" y="0px"
	 viewBox="0 0 52.7 53" style="enable-background:new 0 0 52.7 53;" xml:space="preserve">
<style type="text/css">
	.st0{fill:#4F5257;}
</style>
<g id="Grupo_1627" transform="translate(-0.006 0)">
	<g id="Grupo_1626" transform="translate(0.007 0)">
		<g id="Grupo_1625" transform="translate(0 0)">
			<path id="Caminho_291" class="st0" d="M22,39.7L16,45.8c-2.5,2.7-6.6,2.7-9.3,0.2s-2.9-6.4-0.3-9.1l0.2-0.2l12.3-12.3
				c2.5-2.5,6.7-2.5,9.3,0l0,0c0.8,0.8,2.2,0.8,3,0c0.8-0.8,0.8-2.2,0-3c-4.2-4.2-11.1-4.2-15.3,0l0,0L3.5,33.7
				c-4.2,4.2-4.2,11.1,0,15.3s11.1,4.2,15.3,0l6.1-6.1c0.8-0.8,0.8-2.2,0-3C24.2,38.9,22.9,38.9,22,39.7L22,39.7L22,39.7z"/>
			<path id="Caminho_292" class="st0" d="M49.3,3.2c-4.2-4.2-11.1-4.2-15.3,0l-7.4,7.4c-0.8,0.8-0.8,2.2,0,3c0.8,0.8,2.2,0.8,3,0
				l0,0L37,6.2c2.5-2.5,6.7-2.5,9.3,0s2.5,6.6,0,9.1L32.8,28.8c-2.5,2.5-6.7,2.5-9.3,0l0,0c-0.8-0.8-2.2-0.8-3,0
				c-0.8,0.8-0.8,2.2,0,3l0,0c4.2,4.2,11.1,4.2,15.3,0l0,0l13.5-13.5C53.6,14.3,53.6,7.4,49.3,3.2L49.3,3.2z"/>
		</g>
	</g>
</g>
</svg>
