<?xml version="1.0" encoding="utf-8"?>
<!-- Generator: Adobe Illustrator 25.4.1, SVG Export Plug-In . SVG Version: 6.00 Build 0)  -->
<svg version="1.1" id="Camada_1" xmlns="http://www.w3.org/2000/svg" xmlns:xlink="http://www.w3.org/1999/xlink" x="0px" y="0px"
	 viewBox="0 0 52.7 53" style="enable-background:new 0 0 52.7 53;" xml:space="preserve">
<style type="text/css">
	.st0{fill:#4F5257;}
</style>
<g>
	<g>
		<path class="st0" d="M49.2,29.8c-1.2,0-2.3,0.9-2.3,2.3v13.4c0,1.2-0.9,2.3-2.3,2.3H7.1c-1.2,0-2.3-0.9-2.3-2.3v-36
			c0-1.2,0.9-2.3,2.3-2.3h11.2c1.2,0,2.3-0.9,2.3-2.3s-0.9-2-2.3-2H7.1c-3.8,0-6.7,2.9-6.7,6.7v36c0,3.8,2.9,7,6.7,7h37.4
			c3.8,0,6.7-2.9,6.7-6.7V32.2C51.2,30.9,50.7,29.8,49.2,29.8z"/>
	</g>
</g>
<g>
	<g>
		<path class="st0" d="M48.5,2.6c-1.8-1.8-3.8-2.3-5.8-2.6c-2.3,0-4.7,0.9-6.4,2.6L21,17.8c-2.3,2.3-3.5,5.3-3.5,8.5v5
			c0,1.2,0.9,2.3,2.3,2.3h5c3.2,0,6.1-1.2,8.5-3.5l15.5-15.5C52,11.4,52,5.8,48.5,2.6z M30.1,27.2c-1.5,1.2-3.2,2-5.3,2h-2.9v-2.9
			c0-2,0.9-3.8,2-5.3l10.2-10.2l5.8,5.8L30.1,27.2z M45.3,11.7l-2,2l-5.8-5.8l2-2c1.8-1.8,4.4-1.8,5.8,0
			C47.1,7.3,47.1,9.9,45.3,11.7z"/>
	</g>
</g>
</svg>
