<?xml version="1.0" encoding="utf-8"?>
<!-- Generator: Adobe Illustrator 25.4.1, SVG Export Plug-In . SVG Version: 6.00 Build 0)  -->
<svg version="1.1" id="Camada_1" xmlns="http://www.w3.org/2000/svg" xmlns:xlink="http://www.w3.org/1999/xlink" x="0px" y="0px"
	 viewBox="0 0 52.7 53" style="enable-background:new 0 0 52.7 53;" xml:space="preserve">
<style type="text/css">
	.st0{fill:#4F5257;}
</style>
<g>
	<g transform="translate(10.696 3.291)">
		<path class="st0" d="M36.6,8.6h-4.9c-2.8,0-5.1,2.3-5.1,5.1v30.6c0,2.8,2.3,5.1,5.1,5.1h4.9c2.8,0,5.1-2.3,5.1-5.1V13.7
			C41.7,10.8,39.4,8.6,36.6,8.6z M37.6,44.2c0,0.6-0.5,1-1,1l0,0h-4.9c-0.6,0-1-0.5-1-1c0,0,0,0,0,0V13.7c0-0.6,0.5-1,1-1l0,0h4.9
			c0.6,0,1,0.5,1,1c0,0,0,0,0,0V44.2z"/>
	</g>
	<g transform="translate(0 7.758)">
		<path class="st0" d="M10.2,19.6H5.3c-2.8,0-5.1,2.3-5.1,5.1v15.1c0,2.8,2.3,5.1,5.1,5.1h4.9c2.8,0,5.1-2.3,5.1-5.1V24.7
			C15.3,21.9,13,19.6,10.2,19.6z M11.2,39.8c0,0.6-0.5,1-1,1c0,0,0,0,0,0H5.3c-0.6,0-1-0.5-1-1l0,0V24.7c0-0.6,0.5-1,1-1
			c0,0,0,0,0,0h4.9c0.6,0,1,0.5,1,1l0,0V39.8z"/>
	</g>
	<g transform="translate(5.348)">
		<path class="st0" d="M23.4,0.4h-4.9c-2.8,0-5.1,2.3-5.1,5.1v42c0,2.8,2.3,5.1,5.1,5.1h4.9c2.8,0,5.1-2.3,5.1-5.1v-42
			C28.5,2.7,26.2,0.4,23.4,0.4z M24.4,47.5c0,0.6-0.5,1-1,1l0,0h-4.9c-0.6,0-1-0.5-1-1c0,0,0,0,0,0v-42c0-0.6,0.5-1,1-1l0,0h4.9
			c0.6,0,1,0.5,1,1c0,0,0,0,0,0V47.5z"/>
	</g>
</g>
</svg>
