<?xml version="1.0" encoding="utf-8"?>
<!-- Generator: Adobe Illustrator 25.4.1, SVG Export Plug-In . SVG Version: 6.00 Build 0)  -->
<svg version="1.1" id="Camada_1" xmlns="http://www.w3.org/2000/svg" xmlns:xlink="http://www.w3.org/1999/xlink" x="0px" y="0px"
	 viewBox="0 0 52.7 53" style="enable-background:new 0 0 52.7 53;" xml:space="preserve">
<style type="text/css">
	.st0{fill:#4F5257;stroke:#4F5257;stroke-width:0.5;stroke-miterlimit:10;}
</style>
<path class="st0" d="M25.2,35.8c0.1,0.1,0.3,0.3,0.5,0.3c0.2,0.1,0.4,0.1,0.6,0.1s0.4,0,0.6-0.1c0.2-0.1,0.4-0.2,0.5-0.3L38.3,25
	c0.6-0.6,0.6-1.6,0-2.3c-0.6-0.6-1.6-0.6-2.3,0l-8.1,8.1V2.1c0-0.9-0.7-1.6-1.6-1.6s-1.6,0.7-1.6,1.6v28.7l-8.1-8.1
	c-0.6-0.6-1.6-0.6-2.3,0c-0.6,0.6-0.6,1.6,0,2.3L25.2,35.8z"/>
<path class="st0" d="M50.6,32.4c-0.9,0-1.6,0.7-1.6,1.6v11.8c0,1.8-1.5,3.2-3.2,3.2H6.9c-1.8,0-3.2-1.5-3.2-3.2V34
	c0-0.9-0.7-1.6-1.6-1.6S0.5,33.1,0.5,34v11.8c0,3.5,2.9,6.4,6.4,6.4h38.8c3.5,0,6.4-2.9,6.4-6.4V34C52.2,33.1,51.5,32.4,50.6,32.4z"
	/>
</svg>
