<?xml version="1.0" encoding="utf-8"?>
<!-- Generator: Adobe Illustrator 25.4.1, SVG Export Plug-In . SVG Version: 6.00 Build 0)  -->
<svg version="1.1" id="Camada_1" xmlns="http://www.w3.org/2000/svg" xmlns:xlink="http://www.w3.org/1999/xlink" x="0px" y="0px"
	 viewBox="0 0 52.7 53" style="enable-background:new 0 0 52.7 53;" xml:space="preserve">
<style type="text/css">
	.st0{fill:#4F5257;}
</style>
<g>
	<path id="Caminho_330" class="st0" d="M52.2,6.7v27.4c0,3.3-2.7,6-6.1,6.1H18.7c-3.3,0-6-2.7-6.1-6.1V6.7c0-3.3,2.7-6,6.1-6.1h27.4
		C49.5,0.7,52.2,3.4,52.2,6.7z M46.1,36.2c1.1,0,2-0.9,2-2V6.7c0-1.1-0.9-2-2-2H18.7c-1.1,0-2,0.9-2,2v27.4c0,1.1,0.9,2,2,2H46.1z
		 M8.6,12.8h-2c-3.3,0-6,2.7-6.1,6.1v27.4c0,3.3,2.7,6,6.1,6.1H34c3.3,0,6-2.7,6.1-6.1v-1.9h-4v1.9c0,1.1-0.9,2-2,2H6.6
		c-1.1,0-2-0.9-2-2V18.8c0-1.1,0.9-2,2-2h2V12.8z"/>
</g>
</svg>
