<svg xmlns="http://www.w3.org/2000/svg" width="22.608" height="29.828" viewBox="0 0 22.608 29.828">
  <g id="Grupo_1979" data-name="Grupo 1979" transform="translate(-92.704 -241.503)">
    <path id="Caminho_711" data-name="Caminho 711" d="M103.221,280.831a.849.849,0,1,0,0,1.7h9.968a.849.849,0,1,0,0-1.7Z" transform="translate(-4.197 -17.072)" fill="#4f5257"/>
    <path id="Caminho_712" data-name="Caminho 712" d="M115.312,244.369a2.869,2.869,0,0,0-2.866-2.866H95.57a2.869,2.869,0,0,0-2.866,2.866v24.1a2.869,2.869,0,0,0,2.866,2.866h16.876a2.869,2.869,0,0,0,2.866-2.866.849.849,0,1,0-1.7,0,1.169,1.169,0,0,1-1.168,1.168H95.57a1.169,1.169,0,0,1-1.168-1.168v-24.1A1.17,1.17,0,0,1,95.57,243.2h16.876a1.17,1.17,0,0,1,1.168,1.169v14.237a.849.849,0,0,0,1.7,0Z" transform="translate(0 0)" fill="#4f5257"/>
    <path id="Caminho_713" data-name="Caminho 713" d="M118.523,270.268a.849.849,0,0,0,.6-1.449l-5.009-5.008a6.637,6.637,0,1,0-1.2,1.2l5.009,5.009A.846.846,0,0,0,118.523,270.268ZM105.4,263.253a4.922,4.922,0,1,1,3.48,1.441A4.89,4.89,0,0,1,105.4,263.253Z" transform="translate(-4.147 -5.059)" fill="#4f5257"/>
  </g>
</svg>
