<?xml version="1.0" encoding="utf-8"?>
<!-- Generator: Adobe Illustrator 25.4.1, SVG Export Plug-In . SVG Version: 6.00 Build 0)  -->
<svg version="1.1" id="Camada_1" xmlns="http://www.w3.org/2000/svg" xmlns:xlink="http://www.w3.org/1999/xlink" x="0px" y="0px"
	 viewBox="0 0 52.7 53" style="enable-background:new 0 0 52.7 53;" xml:space="preserve">
<style type="text/css">
	.st0{fill:#4F5257;}
</style>
<g id="Camada_2_00000082347837501039809050000006790974278558306462_">
	<g id="Capa_1">
		<path class="st0" d="M18.8,23.7H5c-2.8,0-5-2.2-5-5V5c0-2.8,2.2-5,5-5h13.8c2.8,0,5,2.2,5,5v13.8C23.8,21.5,21.5,23.8,18.8,23.7
			C18.8,23.7,18.8,23.7,18.8,23.7z M5,3C3.9,3,3,3.9,3,5v13.8c0,1.1,0.9,2,2,2h13.8c1.1,0,2-0.9,2-2V5c0-1.1-0.9-2-2-2H5z"/>
		<path class="st0" d="M47.7,23.7H33.9c-2.8,0-5-2.2-5-5V5c0-2.8,2.2-5,5-5h13.8c2.8,0,5,2.2,5,5v13.8
			C52.7,21.5,50.5,23.7,47.7,23.7z M33.9,3c-1.1,0-2,0.9-2,2v13.8c0,1.1,0.9,2,2,2h13.8c1.1,0,2-0.9,2-2V5c0-1.1-0.9-2-2-2H33.9z"/>
		<path class="st0" d="M18.8,53H5c-2.8,0-5-2.2-5-5V34.2c0-2.8,2.2-5,5-5h13.8c2.8,0,5,2.2,5,5V48C23.8,50.8,21.6,53,18.8,53
			C18.8,53,18.8,53,18.8,53z M5,32.3c-1.1,0-2,0.9-2,2V48c0,1.1,0.9,2,2,2h13.8c1.1,0,2-0.9,2-2V34.2c0-1.1-0.9-2-2-2L5,32.3z"/>
		<path class="st0" d="M47.7,53H33.9c-2.8,0-5-2.2-5-5V34.2c0-2.8,2.2-5,5-5h13.8c2.8,0,5,2.2,5,5V48C52.7,50.8,50.5,53,47.7,53z
			 M33.9,32.3c-1.1,0-2,0.9-2,2V48c0,1.1,0.9,2,2,2h13.8c1.1,0,2-0.9,2-2V34.2c0-1.1-0.9-2-2-2L33.9,32.3z"/>
	</g>
</g>
</svg>
