<?xml version="1.0" encoding="utf-8"?>
<!-- Generator: Adobe Illustrator 25.2.3, SVG Export Plug-In . SVG Version: 6.00 Build 0)  -->
<svg version="1.1" id="Camada_1" xmlns="http://www.w3.org/2000/svg" xmlns:xlink="http://www.w3.org/1999/xlink" x="0px" y="0px"
	 viewBox="0 0 16 18" style="enable-background:new 0 0 16 18;" xml:space="preserve">
<style type="text/css">
	.st0{fill:#4F5257;}
</style>
<g id="go-back-arrow" transform="translate(0 -1.717)">
	<path id="Caminho_726" class="st0" d="M2.8,6.9C2.6,7.2,2.4,7.2,2.4,7V6.6c0-0.6-0.5-1.1-1.1-1.1S0.2,5.9,0.2,6.6v3.8
		c0,0.6,0.5,1.1,1.1,1.1h3.8c0.6,0,1.1-0.5,1.1-1.1c0-0.6-0.5-1.1-1.1-1.1H4.7C4.5,9.3,4.4,9,4.6,8.7c1.5-2.2,4.4-2.8,6.6-1.4
		s2.8,4.4,1.4,6.6c-0.9,1.4-2.4,2.2-4,2.2c-0.7,0-1.3,0.6-1.3,1.3s0.6,1.3,1.3,1.3l0,0c4.1,0,7.3-3.3,7.4-7.3S12.7,4,8.7,4
		C6.4,4,4.2,5.1,2.8,6.9z"/>
</g>
<g>
	<g>
		<path d="M-42.7-122.2V-208c0-9.4-7.6-17.1-17.1-17.1c-4.8,0-9.4,2.1-12.7,5.6L-226.1-48.8c-5.6,6.3-5.8,15.7-0.5,22.2L-73,161.1
			c6,7.3,16.7,8.4,24,2.4c4-3.2,6.2-8.1,6.3-13.2v-85c134.8,4.4,219,62,256.9,175.8c2.3,7,8.8,11.7,16.2,11.7c0.9,0,1.8-0.1,2.7-0.2
			c8.3-1.3,14.3-8.5,14.3-16.8C247.4,34.7,126.4-112.9-42.7-122.2z M-59.8,30.9c-9.4,0-17.1,7.6-17.1,17.1v54.6L-190.9-36.8
			l114.1-126.7v57.9c0,9.4,7.6,17.1,17.1,17.1c134.1,0,234.5,92.8,264.1,234.5C149.4,69.5,60.9,30.9-59.8,30.9z"/>
	</g>
</g>
</svg>
